<svg xmlns="http://www.w3.org/2000/svg" width="187.947" height="48" viewBox="0 0 187.947 48">
  <g id="logo_header" transform="translate(-45.222 -49.208)">
    <g id="logo" transform="translate(43.294 47.282)">
      <path id="パス_1082" data-name="パス 1082" d="M51.055,39.585v-.627H49.416v.629l-7.266,0-.634.635v4.7h1.269V40.86l4.1,0a3.194,3.194,0,0,1-.943,2.95l.822.967a4.382,4.382,0,0,0,1.4-3.918l3.653,0a4.374,4.374,0,0,0,1.4,3.91l.822-.966a3.189,3.189,0,0,1-.942-2.944l4.6,0v4.056h1.27V40.215l-.636-.635Z" transform="translate(-24.309 -22.739)" fill="#395daa"/>
      <path id="パス_1083" data-name="パス 1083" d="M47.185,57.977V56.709H41.972V59.23c0,.026,0,.054,0,.089a1.674,1.674,0,0,0,.412,1.091,3.212,3.212,0,0,0,2.536.858h2.268V60H44.917c-1.029,0-1.417-.249-1.557-.4-.011-.012-.016-.023-.025-.035h3.851V58.3H43.242v-.321Z" transform="translate(-24.587 -33.639)" fill="#395daa"/>
      <path id="パス_1084" data-name="パス 1084" d="M42.749,70.173l-.635.634V77.37h1.269V71.442H57.824v5.875h1.269V70.807l-.635-.634Z" transform="translate(-24.676 -41.906)" fill="#395daa"/>
      <path id="パス_1085" data-name="パス 1085" d="M49.889,76.206h7.217v.725H49.889Zm9.129.249S59,77.983,59,78.759H54.236V78.2h3.5l.635-.635V75.572l-.635-.635H49.255l-.635.635v1.994l.635.635h3.712v.559h-4.9V75.854H46.795v3.54l.634.635h5.538v.562H47.715v1.269H53.6l.634-.635v-1.2h5.389l.635-.629.033-3.567-1.27-.012-.006.635" transform="translate(-27.55 -44.831)" fill="#395daa"/>
      <path id="パス_1086" data-name="パス 1086" d="M59.851,57.135c.846,0,1.408.391,1.408.648s-.562.649-1.408.649-1.409-.391-1.409-.649.562-.648,1.409-.648M57.173,60.35h1.269c0-.259.562-.649,1.409-.649s1.408.391,1.408.649h1.269a1.649,1.649,0,0,0-.675-1.283,1.556,1.556,0,0,0,0-2.566,1.647,1.647,0,0,0,.675-1.283H61.259c0,.259-.562.649-1.408.649s-1.409-.391-1.409-.649H57.173a1.647,1.647,0,0,0,.675,1.283,1.556,1.556,0,0,0,0,2.566,1.649,1.649,0,0,0-.675,1.283" transform="translate(-33.923 -32.723)" fill="#395daa"/>
      <path id="パス_1087" data-name="パス 1087" d="M77.948,56.708H72.735v1.269h3.944V58.3H72.735v1.269h3.851c-.01.012-.015.023-.026.035-.14.148-.529.4-1.557.4H72.735v1.269H75a3.212,3.212,0,0,0,2.536-.858,1.671,1.671,0,0,0,.412-1.091c0-.036,0-.063,0-.089Z" transform="translate(-43.479 -33.638)" fill="#395daa"/>
      <path id="パス_1088" data-name="パス 1088" d="M39.619,44.328C34.491,43,33.992,39.662,27.715,40.8l-2.874.52c-1.739-1.805-3.165-3.383-7.227-3.4L14.173,37.9a8.7,8.7,0,0,0-1.765-2.834c-2.161-2.1-8.131-2.41-8.411-2.394q-.271-.879-.474-1.789A81.721,81.721,0,0,0,16.65,21.866V20.831a64.442,64.442,0,0,1-13.507,7.8A22.946,22.946,0,0,1,48.1,20a32.464,32.464,0,0,1-3.611-3.056H43.224A75.387,75.387,0,0,1,35.009,6.668H33.276l-.376.92-.517-.92H30.3l-.517.92-.375-.92H27.675a54.342,54.342,0,0,1-6.5,9.627h.942A52.382,52.382,0,0,0,27.96,7.244h1.091l.363,1-.462.822h.6l.924-1.821h1.592l.784,1.821h.879l-.462-.822.363-1h1.091A63.7,63.7,0,0,0,41.95,17.779h1.135a51.959,51.959,0,0,0,5.644,5.586,22.918,22.918,0,0,1-9.11,20.964M36.277,46.4c-6.305-.619-8.884-2.541-10.765-4.4,5.629-.645,6.118,2.783,11.744,3.872q-.482.276-.979.528m-3.69,1.484s-9.18-.305-13.857-4.015a13.751,13.751,0,0,1-4.143-5.088c8.257.337,5.031,7.624,19.532,8.577q-.754.288-1.533.526m-6.658.986A22.984,22.984,0,0,1,4.266,33.489S8,33.675,9.592,36.16s2.688,5.679,7.655,8.743,10.992,3.35,13.061,3.547a22.965,22.965,0,0,1-4.379.421m0-46.945a24,24,0,1,0,24,24,24.027,24.027,0,0,0-24-24" transform="translate(0 0)" fill="#395daa"/>
      <path id="パス_1089" data-name="パス 1089" d="M242.342,14.547a.6.6,0,0,1-.171-.455.577.577,0,0,1,.176-.447.658.658,0,0,1,.452-.149h6.87a.8.8,0,0,1,.558.2.724.724,0,0,1,.231.549,1.169,1.169,0,0,1-.573.924,5.267,5.267,0,0,1-1.479.682,6.3,6.3,0,0,0-.661.209l.008-.014c-.553.157-.65.294-.664.321l0,.007v.071h5.081l-.442,1.212h-4.64V19.7a1.5,1.5,0,0,1-.382,1.143,1.694,1.694,0,0,1-1.18.343,7.964,7.964,0,0,1-1.359-.146,8.265,8.265,0,0,1-1.362-.35.99.99,0,0,1-.42-.253.606.606,0,0,1-.181-.421.516.516,0,0,1,.161-.394.566.566,0,0,1,.4-.143,6.2,6.2,0,0,1,1.018.22,6.062,6.062,0,0,0,1.465.206c.363,0,.464-.08.481-.095s.095-.108.095-.542V17.658h-4.875a.631.631,0,0,1-.448-.155.574.574,0,0,1-.174-.442.586.586,0,0,1,.622-.615h4.875v-.3c0-.44.362-.773,1.077-.991l.044-.014a9.148,9.148,0,0,0,1.016-.37l-.015-.067H242.8a.634.634,0,0,1-.457-.161" transform="translate(-146.387 -7.105)" fill="#395daa"/>
      <path id="パス_1090" data-name="パス 1090" d="M244.691,4.944h1.894l-.113-.165-.523-.62c-.413-.454-.5-.646-.5-.8a.562.562,0,0,1,.194-.412.6.6,0,0,1,.417-.179.976.976,0,0,1,.568.241,6.93,6.93,0,0,1,.762.721,2.869,2.869,0,0,1,.444.542.965.965,0,0,1,.132.475l-.022.188.039,0h.623l.01-.009A10.876,10.876,0,0,0,249.8,3.729c.582-.69.82-.829,1.017-.829a.7.7,0,0,1,.5.2.686.686,0,0,1,.2.5,1.221,1.221,0,0,1-.391.724c-.132.15-.315.333-.56.562l-.065.06h.9a1.067,1.067,0,0,1,.765.306,1.009,1.009,0,0,1,.32.753V7.856l-1.281.467V6.431a.327.327,0,0,0-.059-.216.351.351,0,0,0-.227-.059h-8.45a.58.58,0,0,0-.224.029l-.011.005-.006.012a.541.541,0,0,0-.032.229V8a.513.513,0,0,1-.212.41.683.683,0,0,1-.439.15.691.691,0,0,1-.418-.13h0a.484.484,0,0,1-.213-.392V6a1.007,1.007,0,0,1,.314-.811,1.381,1.381,0,0,1,.907-.248h1.051l-.283-.281c-.772-.746-.836-.936-.836-1.078a.558.558,0,0,1,.194-.425A.645.645,0,0,1,242.7,3c.232,0,.525.165.981.553l.044.043.242.206c.5.408.708.692.708.951l-.017.127-.012.066Z" transform="translate(-146.751 -0.518)" fill="#395daa"/>
      <path id="パス_1091" data-name="パス 1091" d="M206.178,6.561a.665.665,0,0,1-.18-.472.653.653,0,0,1,.183-.472.631.631,0,0,1,.458-.184h4.542V3.759a.6.6,0,0,1,.213-.474.737.737,0,0,1,.49-.167.684.684,0,0,1,.478.183.609.609,0,0,1,.206.457V5.433h5.25l-.479,1.317h-4.63l.013.045a11.16,11.16,0,0,0,1.215,2.68,20.562,20.562,0,0,0,2.22,2.714c.207.213.8.74,1.27,1.166.307.274.566.506.661.6l-1.577.575c-.337-.289-1.321-1.261-1.694-1.656a14.414,14.414,0,0,1-1.774-2.286,13.856,13.856,0,0,1-.95-1.824l-.036-.085-.029.087a8.986,8.986,0,0,1-.987,2.055,11.019,11.019,0,0,1-2.209,2.4,13.343,13.343,0,0,1-1.311.981,1.806,1.806,0,0,1-.895.39.565.565,0,0,1-.42-.182.6.6,0,0,1-.165-.415c0-.22.173-.478,1.033-1.084a12.212,12.212,0,0,0,1.587-1.319,8.666,8.666,0,0,0,1.684-2.337,8.57,8.57,0,0,0,.739-2.462l.006-.041h-4.451a.627.627,0,0,1-.461-.189" transform="translate(-125.308 -0.731)" fill="#395daa"/>
      <path id="パス_1092" data-name="パス 1092" d="M320.067,14.814c.07.059.138.112.2.164l1.609-.586c-.154-.171-2.176-1.86-2.648-2.359a15.956,15.956,0,0,1-1.978-2.582,5.791,5.791,0,0,1-.809-2.374V4.4a.518.518,0,0,0-.223-.423.763.763,0,0,0-.476-.152.674.674,0,0,0-.445.161.533.533,0,0,0-.206.414v2.12a7.691,7.691,0,0,1-.441,2.375,9.067,9.067,0,0,1-1.134,2.325,9.289,9.289,0,0,1-2.836,2.493l-.125.07a1.347,1.347,0,0,0-.347.287.57.57,0,0,0-.147.365.557.557,0,0,0,.152.4.536.536,0,0,0,.4.159,1.4,1.4,0,0,0,.56-.144,5.676,5.676,0,0,0,.769-.445,12.659,12.659,0,0,0,1.09-.792,7.866,7.866,0,0,0,.864-.809,7.982,7.982,0,0,0,1.244-1.775,11.75,11.75,0,0,0,.743-1.824,14.058,14.058,0,0,0,.676,1.446,11.834,11.834,0,0,0,1.154,1.732,22.528,22.528,0,0,0,2.354,2.425" transform="translate(-189.211 -1.168)" fill="#395daa"/>
      <path id="パス_1093" data-name="パス 1093" d="M147.624,4.152H139.6c-1.457,0-1.483,1.1-1.483,1.227v8.513c0,.179.064,1.227,1.483,1.227h8.027c1.457,0,1.5-1.1,1.5-1.227V5.379c0-.179-.077-1.227-1.5-1.227m.179,9.076c0,.408-.064.652-.562.652h-7.3c-.5,0-.562-.231-.562-.652v-7.2c0-.422.064-.652.562-.652h7.3c.5,0,.562.23.562.652Zm-7.938-6.456c0,.6.575.6,1.022.6h2.071V8.818h-1.815c-.46,0-1.023,0-1.023.587s.562.589,1.023.589h1.815v1.853h-2.173c-.473,0-1.022,0-1.022.626s.55.614,1.022.614h6.207l.449-1.234c-.079,0-.885-.006-.955-.006a.509.509,0,0,0,.23-.447,2.432,2.432,0,0,0-.5-.921.679.679,0,0,0-.588-.332.539.539,0,0,0-.562.576,3.922,3.922,0,0,0,.677,1.124H144.2V9.994h2.4l.426-1.171c-.095,0-.191-.005-.284-.005H144.2V7.373h2.648l.442-1.215h-6.4c-.448,0-1.022,0-1.022.614" transform="translate(-83.624 -1.366)" fill="#395daa"/>
      <path id="パス_1094" data-name="パス 1094" d="M173.361,6.178h9.234l.47-1.291h-4.616V4.094c0-.639,0-1.023-.78-1.023-.69,0-.69.474-.69,1.023v.792h-3.618c-.5,0-1.023,0-1.023.639s.525.652,1.023.652m1.291.792c-.255,0-.754.2-.754.653a1.547,1.547,0,0,0,.192.626,23.8,23.8,0,0,1,.882,2.774c.384,1.457.46,1.726.933,1.726a.736.736,0,0,0,.742-.537.9.9,0,0,0,.025-.192,22.845,22.845,0,0,0-1.036-3.668c-.345-.933-.536-1.381-.984-1.381m5.152,6.239a20.8,20.8,0,0,0,1.764-5.535.675.675,0,0,0-.7-.742c-.512,0-.562.231-.741,1.01a28.615,28.615,0,0,1-1.751,5.267h-5.356c-.524,0-1.023,0-1.023.664s.5.665,1.023.665h9.952l.484-1.329Z" transform="translate(-104.428 -0.702)" fill="#395daa"/>
      <path id="パス_1095" data-name="パス 1095" d="M277.687,8.682a.591.591,0,0,0,.575-.665c-.051-.332-.153-.409-1.074-1.124-.895-.69-.984-.768-1.266-.768a.591.591,0,0,0-.588.6.508.508,0,0,0,.191.383c.128.128.858.665,1.01.793.843.7.933.779,1.15.779M277.406,5.3c.589.511.627.537.806.537a.619.619,0,0,0,.574-.626c0-.55-1.572-1.7-2.121-1.764a.554.554,0,0,0-.6.575.464.464,0,0,0,.166.384c.154.14,1,.741,1.176.895m7.325,4.819a.638.638,0,0,0-.588.626c0,.14.064.269.4.882a8.019,8.019,0,0,1,.562,1.2,31.785,31.785,0,0,1-3.8.422,19.537,19.537,0,0,0,.882-3.886h4.256l.423-1.163h-3.452V6.241h2.646l.446-1.226h-3.093V4.171c0-.55,0-1.023-.69-1.023-.665,0-.665.524-.665,1.023v.844H280.1c-.472,0-1.022,0-1.022.613s.55.613,1.022.613h1.956V8.2h-2.327c-.447,0-1.01,0-1.01.575s.562.588,1.01.588h1.176a15.764,15.764,0,0,1-1.06,3.938c-.716.013-1.227.025-1.227.639a.615.615,0,0,0,.677.638,37.441,37.441,0,0,0,6.2-.677c.073.233.131.418.339.993l1.092-.4a18.685,18.685,0,0,0-1.239-3.216c-.409-.883-.639-1.163-.959-1.163m-6.711-.154c-.4,0-.524.409-.588.6a12.692,12.692,0,0,1-1.6,3.093c-.243.346-.269.384-.269.563a.642.642,0,0,0,.627.626c.281,0,.473-.1,1.022-.946a9.174,9.174,0,0,0,1.431-3.4.576.576,0,0,0-.626-.537" transform="translate(-167.884 -0.75)" fill="#395daa"/>
      <path id="パス_1096" data-name="パス 1096" d="M425.335,79.845v-.069c.02-.035.235-.387,1.7-.8l1.726-.514a14,14,0,0,0,3.929-1.811,3.179,3.179,0,0,0,1.552-2.517,2,2,0,0,0-.64-1.516,2.2,2.2,0,0,0-1.536-.56H413.926a1.828,1.828,0,0,0-1.258.417,1.61,1.61,0,0,0-.5,1.251,1.683,1.683,0,0,0,.48,1.266,1.764,1.764,0,0,0,1.274.45H427.51a23.485,23.485,0,0,1-2.673.971l-.116.037c-1.925.588-2.91,1.5-2.91,2.706v.69H409.034a1.725,1.725,0,0,0-1.258.476,1.694,1.694,0,0,0-.479,1.241,1.61,1.61,0,0,0,.491,1.234,1.759,1.759,0,0,0,1.247.434h12.778v4.16c0,1.135-.221,1.363-.221,1.366-.024.022-.26.223-1.207.223a15.817,15.817,0,0,1-3.844-.541,15.288,15.288,0,0,0-2.711-.584,1.578,1.578,0,0,0-1.116.4,1.449,1.449,0,0,0-.46,1.107,1.7,1.7,0,0,0,.506,1.174,2.739,2.739,0,0,0,1.145.692,21.863,21.863,0,0,0,3.609.928,21.053,21.053,0,0,0,3.606.388,4.537,4.537,0,0,0,3.177-.933,4.039,4.039,0,0,0,1.038-3.083v-5.3h12.224l1.23-3.385Z" transform="translate(-248.914 -43.062)" fill="#395daa"/>
      <path id="パス_1097" data-name="パス 1097" d="M409.474,58.842a2.008,2.008,0,0,0,2.373-.051,1.454,1.454,0,0,0,.6-1.158V53.491a1.426,1.426,0,0,1,.072-.561,1.387,1.387,0,0,1,.555-.072h22.309a.811.811,0,0,1,.535.132.749.749,0,0,1,.127.5v5.13l3.57-1.3v-4.96a2.761,2.761,0,0,0-.873-2.053,2.909,2.909,0,0,0-2.085-.835h-2.143c.622-.578,1.122-1.078,1.485-1.491a3.3,3.3,0,0,0,1.056-1.973,1.9,1.9,0,0,0-.553-1.38,1.927,1.927,0,0,0-1.4-.551c-.546,0-1.195.371-2.751,2.22a28.75,28.75,0,0,1-3.116,3.175h-1.611a1.766,1.766,0,0,0,.051-.416,2.659,2.659,0,0,0-.364-1.3,7.678,7.678,0,0,0-1.185-1.452,19.083,19.083,0,0,0-2.025-1.915,2.68,2.68,0,0,0-1.555-.654,1.674,1.674,0,0,0-1.165.5,1.57,1.57,0,0,0-.541,1.157c0,.418.226.946,1.337,2.162-.014-.01,1.371,1.628,1.371,1.628s.12.173.2.293h-4.825a2.112,2.112,0,0,0,.057-.416c0-.713-.568-1.484-1.9-2.579l-.633-.541c-.027-.025-.1-.1-.1-.1l-.024-.018c-1.219-1.04-2.013-1.481-2.648-1.481a1.792,1.792,0,0,0-1.212.448,1.552,1.552,0,0,0-.541,1.191c0,.411.166.916,2.23,2.911,0,0,.262.258.591.583h-2.553a3.708,3.708,0,0,0-2.452.679,2.733,2.733,0,0,0-.863,2.209v5.372a1.366,1.366,0,0,0,.6,1.11" transform="translate(-249.882 -25.673)" fill="#395daa"/>
      <path id="パス_1098" data-name="パス 1098" d="M344.646,74.059,349,72.474c-.333-.365-4.263-3.79-5.2-4.759a52.931,52.931,0,0,1-5.851-7.153,29.281,29.281,0,0,1-3.2-7.049h12.166l1.333-3.664h-13.9V45.521a1.7,1.7,0,0,0-.573-1.277,1.912,1.912,0,0,0-1.327-.507,2.02,2.02,0,0,0-1.353.462,1.678,1.678,0,0,0-.6,1.322v4.328H318.6a1.754,1.754,0,0,0-1.276.513,1.812,1.812,0,0,0-.51,1.31,1.851,1.851,0,0,0,.5,1.312,1.743,1.743,0,0,0,1.285.529h11.645a22.461,22.461,0,0,1-1.945,6.472,22.787,22.787,0,0,1-4.426,6.147A32.109,32.109,0,0,1,319.7,69.6c-2.3,1.623-2.768,2.327-2.768,2.937a1.667,1.667,0,0,0,.462,1.159,1.584,1.584,0,0,0,1.176.512,4.812,4.812,0,0,0,2.411-1.045,34.978,34.978,0,0,0,3.472-2.6,29.135,29.135,0,0,0,5.849-6.358,23.719,23.719,0,0,0,2.615-5.446,36.72,36.72,0,0,0,2.514,4.828,38.106,38.106,0,0,0,4.7,6.052c1.041,1.1,3.682,3.705,4.52,4.414" transform="translate(-193.356 -25.673)" fill="#395daa"/>
      <path id="パス_1099" data-name="パス 1099" d="M159.647,57.791h-2.689V54.546h2.689Zm0,6.861h-2.689V61.221h2.689ZM155.45,51.3h-2.585c.138-.358.272-.731.4-1.114v0c.2-.606.4-1.262.587-1.943h3.92a8.557,8.557,0,0,1-.526.817c-.452.639-1.067,1.4-1.8,2.243m9.972,6.49h-2.437v-3.4a3.268,3.268,0,0,0-.706-2.308,2.889,2.889,0,0,0-2.211-.783h-.488a16.533,16.533,0,0,0,1.236-1.606,4.335,4.335,0,0,0,.871-2.281,2.314,2.314,0,0,0-.749-1.772A2.61,2.61,0,0,0,159.123,45h-4.7a1.661,1.661,0,0,0-.431-.99,1.7,1.7,0,0,0-1.242-.479c-1.416,0-1.841,2-1.981,2.66l-.27,1.173a26.128,26.128,0,0,1-1.214,3.764,14.074,14.074,0,0,1-1.345,2.494H142.91V52.7h4.134a1.418,1.418,0,0,0,1.078-.523,1.642,1.642,0,0,0,.431-1.093,1.522,1.522,0,0,0-.43-1.082,1.476,1.476,0,0,0-1.079-.454H142.91V48.537h4.574a1.4,1.4,0,0,0,1.081-.5,1.644,1.644,0,0,0,.4-1.1,1.482,1.482,0,0,0-.432-1.079,1.444,1.444,0,0,0-1.045-.426H142.91v-.4a1.485,1.485,0,0,0-.478-1.11,1.645,1.645,0,0,0-1.158-.43,1.745,1.745,0,0,0-1.152.433,1.433,1.433,0,0,0-.549,1.107v.4H134.99a1.4,1.4,0,0,0-1.082.5,1.653,1.653,0,0,0-.394,1.1,1.489,1.489,0,0,0,.422,1.061,1.436,1.436,0,0,0,1.055.445h4.582v1.009h-4.109a1.523,1.523,0,0,0-1.137.446,1.664,1.664,0,0,0,.026,2.241,1.513,1.513,0,0,0,1.111.465h4.109v.919h-5.188a1.447,1.447,0,0,0-1.082.484,1.575,1.575,0,0,0-.426,1.093,1.55,1.55,0,0,0,.453,1.1,1.443,1.443,0,0,0,1.054.48h14.062c1.056,0,2.007-.735,2.909-2.226h2.172v3.245h-3.895a1.56,1.56,0,0,0-1.142.486,1.653,1.653,0,0,0-.463,1.181,1.814,1.814,0,0,0,.444,1.21,1.506,1.506,0,0,0,1.161.554h3.895v3.431h-3.3a1.55,1.55,0,0,0-1.174.5,1.709,1.709,0,0,0-.433,1.178,1.667,1.667,0,0,0,.432,1.189,1.557,1.557,0,0,0,1.174.474h3.3V70.8c0,.5-.11.629-.115.636a.594.594,0,0,1-.384.083,4.885,4.885,0,0,1-1.231-.2,4.955,4.955,0,0,0-1.248-.254,1.526,1.526,0,0,0-1.605,1.6,1.915,1.915,0,0,0,1.36,1.766,6.9,6.9,0,0,0,2.785.47,4.473,4.473,0,0,0,2.889-.753,3.218,3.218,0,0,0,.978-2.616V67.992h3.11a2.508,2.508,0,0,0,2.917-2.92v-3.85h1.187l1.249-3.431" transform="translate(-80.409 -25.525)" fill="#395daa"/>
      <path id="パス_1100" data-name="パス 1100" d="M138.089,96.332a1.412,1.412,0,0,0,.536,1.116,1.758,1.758,0,0,0,1.157.389,1.7,1.7,0,0,0,1.144-.4,1.437,1.437,0,0,0,.5-1.1V92.4h4.332l1.181-3.244h-5.513V87.993h4.349l1.164-3.2h-5.513V83.666s0-.024,0-.03l.056,0h5.851l.019,0a.778.778,0,0,1,.007.1v9.782c0,.476-.112.591-.116.595a1.156,1.156,0,0,1-.646.118,6.351,6.351,0,0,1-1.619-.251,6.038,6.038,0,0,0-1.419-.3,1.461,1.461,0,0,0-1.1.464,1.573,1.573,0,0,0-.411,1.105c0,.545.278,1.309,1.6,1.847a8.594,8.594,0,0,0,3.195.519,4.291,4.291,0,0,0,2.88-.8,3.552,3.552,0,0,0,.971-2.866v-10.9a2.613,2.613,0,0,0-.752-1.787,2.688,2.688,0,0,0-2.005-.776h-6.767a3.281,3.281,0,0,0-2.217.715c-.577.5-.87,1.192-.87,3.314Z" transform="translate(-83.609 -48.235)" fill="#395daa"/>
      <path id="パス_1101" data-name="パス 1101" d="M259.174,91.787a2.923,2.923,0,0,0,1.079-2.449V82.452a1.566,1.566,0,0,0-.527-1.208,1.8,1.8,0,0,0-1.227-.432,1.83,1.83,0,0,0-1.234.439,1.563,1.563,0,0,0-.536,1.2v6.119a.939.939,0,0,1-.134.578.631.631,0,0,1-.431.118h-9.332c-.607,0-.79-.131-.821-.157a.8.8,0,0,1-.13-.539V82.452a1.571,1.571,0,0,0-.519-1.192,1.758,1.758,0,0,0-1.2-.447,1.876,1.876,0,0,0-1.234.425,1.537,1.537,0,0,0-.569,1.215v6.887a3,3,0,0,0,1.01,2.4,3.893,3.893,0,0,0,2.6.816h10.36a4.515,4.515,0,0,0,2.846-.771" transform="translate(-147.635 -48.44)" fill="#395daa"/>
      <path id="パス_1102" data-name="パス 1102" d="M256.192,47.106a4.083,4.083,0,0,0-2.718-.847H231.617a3.851,3.851,0,0,0-2.646.882,3.1,3.1,0,0,0-1.031,2.429v25.4a1.4,1.4,0,0,0,.564,1.119,1.821,1.821,0,0,0,1.174.392,1.925,1.925,0,0,0,1.189-.379,1.384,1.384,0,0,0,.6-1.132V50.513a.989.989,0,0,1,.17-.68c.052-.044.277-.189.989-.189h19.718a2.34,2.34,0,0,1,1.231.185c.049.037.146.23.146.684V70.082a2.941,2.941,0,0,1-.65,2.245c-.266.221-1.015.591-3.034.591a20.4,20.4,0,0,1-2.667-.195,17.834,17.834,0,0,0-1.776-.211,1.676,1.676,0,0,0-1.183.44,1.565,1.565,0,0,0-.486,1.185c0,.87.668,1.482,1.986,1.821a19.381,19.381,0,0,0,4.54.392c2.461,0,4.164-.45,5.207-1.374s1.589-2.493,1.589-4.636V49.57a3.08,3.08,0,0,0-1.051-2.464" transform="translate(-138.782 -27.222)" fill="#395daa"/>
      <path id="パス_1103" data-name="パス 1103" d="M250.555,64.244h7.821l1.215-3.339h-4.032c.222-.263.447-.524.66-.792a4.984,4.984,0,0,0,.632-1.034,2.862,2.862,0,0,0,.281-.9,1.641,1.641,0,0,0-.007-.415,1.992,1.992,0,0,0-.555-1.091,1.859,1.859,0,0,0-1.274-.531,2.268,2.268,0,0,0-.406.032c-.377.061-.773.312-1.4,1.162-.1.135-.2.28-.307.437-.2.292-.409.634-.651,1.037-.439.739-.9,1.435-1.372,2.093h-4.9a22.633,22.633,0,0,0-1.741-3.193,2.63,2.63,0,0,0-2.031-1.306,1.724,1.724,0,0,0-1.249.463,1.657,1.657,0,0,0-.486,1.24c0,.364.182.869,1.069,2.149q.23.333.435.648H239.8a1.595,1.595,0,0,0-1.607,1.621,1.737,1.737,0,0,0,.443,1.175,1.538,1.538,0,0,0,1.164.543h7.235V74.12l3.524-1.282Z" transform="translate(-145.075 -33.292)" fill="#395daa"/>
    </g>
  </g>
</svg>
